<svg width="20" height="21" viewBox="0 0 20 21" fill="none" xmlns="http://www.w3.org/2000/svg">
<path d="M11.667 13.833L17.5003 13.833" stroke="white" stroke-opacity="0.6" stroke-width="1.6" stroke-linecap="round" stroke-linejoin="round"/>
<path d="M2.5 13.833H4.16667" stroke="white" stroke-opacity="0.6" stroke-width="1.6" stroke-linecap="round" stroke-linejoin="round"/>
<path d="M6.25033 15.9162C7.40092 15.9162 8.33366 14.9834 8.33366 13.8328C8.33366 12.6823 7.40092 11.7495 6.25033 11.7495C5.09973 11.7495 4.16699 12.6823 4.16699 13.8328C4.16699 14.9834 5.09973 15.9162 6.25033 15.9162Z" stroke="white" stroke-opacity="0.6" stroke-width="1.6" stroke-linecap="round" stroke-linejoin="round"/>
<path d="M16.6665 7.41602H17.4998" stroke="white" stroke-opacity="0.6" stroke-width="1.6" stroke-linecap="round" stroke-linejoin="round"/>
<path d="M2.5 7.41602H8.33333" stroke="white" stroke-opacity="0.6" stroke-width="1.6" stroke-linecap="round" stroke-linejoin="round"/>
<path d="M13.7503 9.49967C14.9009 9.49967 15.8337 8.56693 15.8337 7.41634C15.8337 6.26575 14.9009 5.33301 13.7503 5.33301C12.5997 5.33301 11.667 6.26575 11.667 7.41634C11.667 8.56693 12.5997 9.49967 13.7503 9.49967Z" stroke="white" stroke-opacity="0.6" stroke-width="1.6" stroke-linecap="round" stroke-linejoin="round"/>
</svg>
