<svg width="48" height="17" viewBox="0 0 48 17" fill="none" xmlns="http://www.w3.org/2000/svg">
<rect y="0.332031" width="48" height="16" rx="8" fill="#4BB3FF" fill-opacity="0.2"/>
<path fill-rule="evenodd" clip-rule="evenodd" d="M33.7798 12.332C32.3748 12.332 31.286 11.9973 30.5136 11.3279C29.7412 10.6511 29.355 9.65065 29.355 8.32651C29.355 7.00973 29.7412 6.01663 30.5136 5.3472C31.286 4.67042 32.4005 4.33203 33.857 4.33203H35.8433C37.2998 4.33203 38.4143 4.67042 39.1867 5.3472C39.9591 6.01663 40.3453 7.00973 40.3453 8.32651C40.3453 9.65065 39.9591 10.6511 39.1867 11.3279C38.4143 11.9973 37.3182 12.332 35.8984 12.332H33.7798ZM33.9784 5.76651C33.1619 5.76651 32.5256 5.91364 32.0695 6.20789C31.6134 6.50215 31.3265 6.96927 31.2088 7.60927H38.4915C38.3738 6.96927 38.0869 6.50215 37.6308 6.20789C37.1748 5.91364 36.5384 5.76651 35.7219 5.76651H33.9784ZM34.0115 10.8975H35.7219C36.5458 10.8975 37.1821 10.7504 37.6308 10.4562C38.0869 10.1619 38.3738 9.69111 38.4915 9.04376H31.2088C31.3265 9.69111 31.6134 10.1619 32.0695 10.4562C32.5256 10.7504 33.1729 10.8975 34.0115 10.8975ZM19.2788 12.277V4.38737H25.8885C26.705 4.38737 27.3377 4.59335 27.7864 5.0053C28.2425 5.41725 28.4705 6.04254 28.4705 6.88116C28.4705 7.59473 28.305 8.15381 27.974 8.5584C27.6429 8.963 27.1721 9.2168 26.5616 9.31978L28.3823 12.277H26.374L24.6857 9.37496H21.0443V12.277H19.2788ZM25.6788 5.82185H21.0443V7.92944L25.6788 7.94047C26.0025 7.94047 26.2489 7.85955 26.4181 7.69771C26.5947 7.53588 26.6829 7.26369 26.6829 6.88116C26.6829 6.49128 26.5947 6.21909 26.4181 6.06461C26.2489 5.90277 26.0025 5.82185 25.6788 5.82185ZM8.98779 4.38737V12.277H10.7533V9.37496H15.5974C16.414 9.37496 17.0466 9.16898 17.4954 8.75703C17.9515 8.34507 18.1795 7.71978 18.1795 6.88116C18.1795 6.04254 17.9515 5.41725 17.4954 5.0053C17.0466 4.59335 16.414 4.38737 15.5974 4.38737H8.98779ZM10.7533 5.82185H15.3878C15.7115 5.82185 15.9579 5.90277 16.1271 6.06461C16.3037 6.21909 16.3919 6.49128 16.3919 6.88116C16.3919 7.26369 16.3037 7.53588 16.1271 7.69771C15.9579 7.85955 15.7115 7.94047 15.3878 7.94047L10.7533 7.92944V5.82185Z" fill="#4BB3FF"/>
</svg>
