<svg width="24" height="24" viewBox="0 0 24 24" fill="none" xmlns="http://www.w3.org/2000/svg">
<rect width="24" height="24" rx="4" fill="white" fill-opacity="0.1"/>
<path fill-rule="evenodd" clip-rule="evenodd" d="M13.0001 7.6875C13.0001 7.13522 12.5524 6.6875 12.0001 6.6875C11.4478 6.6875 11.0001 7.13522 11.0001 7.6875V11.0003H7.6875C7.13522 11.0003 6.6875 11.448 6.6875 12.0003C6.6875 12.5526 7.13522 13.0003 7.6875 13.0003H11.0001V16.3127C11.0001 16.865 11.4478 17.3127 12.0001 17.3127C12.5524 17.3127 13.0001 16.865 13.0001 16.3127V13.0003H16.3127C16.865 13.0003 17.3127 12.5526 17.3127 12.0003C17.3127 11.448 16.865 11.0003 16.3127 11.0003H13.0001V7.6875Z" fill="white" fill-opacity="0.5"/>
</svg>
