<svg width="24" height="25" viewBox="0 0 24 25" fill="none" xmlns="http://www.w3.org/2000/svg">
<path d="M7 20.25C7 18.5931 9.23858 17.25 12 17.25C14.7614 17.25 17 18.5931 17 20.25" stroke="white" stroke-width="2" stroke-linecap="round" stroke-linejoin="round"/>
<path d="M18 14.5C19.7659 14.9629 21 16.0202 21 17.2504" stroke="white" stroke-width="2" stroke-linecap="round" stroke-linejoin="round"/>
<path d="M6 14.5C4.2341 14.9629 3 16.0202 3 17.2504" stroke="white" stroke-width="2" stroke-linecap="round" stroke-linejoin="round"/>
<path d="M12 14.25C13.6569 14.25 15 12.9069 15 11.25C15 9.59315 13.6569 8.25 12 8.25C10.3431 8.25 9 9.59315 9 11.25C9 12.9069 10.3431 14.25 12 14.25Z" stroke="white" stroke-width="2" stroke-linecap="round" stroke-linejoin="round"/>
<path d="M18 10.4861C18.6137 9.93679 19 9.1385 19 8.25C19 6.59315 17.6569 5.25 16 5.25C15.2316 5.25 14.5308 5.53885 14 6.01389" stroke="white" stroke-width="2" stroke-linecap="round" stroke-linejoin="round"/>
<path d="M6 10.4861C5.38625 9.93679 5 9.1385 5 8.25C5 6.59315 6.34315 5.25 8 5.25C8.76835 5.25 9.46924 5.53885 10 6.01389" stroke="white" stroke-width="2" stroke-linecap="round" stroke-linejoin="round"/>
</svg>
