<svg width="48" height="48" viewBox="0 0 48 48" fill="none" xmlns="http://www.w3.org/2000/svg">
<rect width="48" height="48" rx="6" fill="#262626"/>
<path d="M25.667 27.5L31.5003 27.5" stroke="white" stroke-width="1.6" stroke-linecap="round" stroke-linejoin="round"/>
<path d="M16.5 27.5H18.1667" stroke="white" stroke-width="1.6" stroke-linecap="round" stroke-linejoin="round"/>
<path d="M20.2503 29.5832C21.4009 29.5832 22.3337 28.6504 22.3337 27.4998C22.3337 26.3492 21.4009 25.4165 20.2503 25.4165C19.0997 25.4165 18.167 26.3492 18.167 27.4998C18.167 28.6504 19.0997 29.5832 20.2503 29.5832Z" stroke="white" stroke-width="1.6" stroke-linecap="round" stroke-linejoin="round"/>
<path d="M30.6665 21.083H31.4998" stroke="white" stroke-width="1.6" stroke-linecap="round" stroke-linejoin="round"/>
<path d="M16.5 21.083H22.3333" stroke="white" stroke-width="1.6" stroke-linecap="round" stroke-linejoin="round"/>
<path d="M27.7503 23.1667C28.9009 23.1667 29.8337 22.2339 29.8337 21.0833C29.8337 19.9327 28.9009 19 27.7503 19C26.5997 19 25.667 19.9327 25.667 21.0833C25.667 22.2339 26.5997 23.1667 27.7503 23.1667Z" stroke="white" stroke-width="1.6" stroke-linecap="round" stroke-linejoin="round"/>
</svg>
