<svg width="40" height="217" viewBox="0 0 40 217" fill="none" xmlns="http://www.w3.org/2000/svg">
<path fill-rule="evenodd" clip-rule="evenodd" d="M18.0511 109.018L15.6919 108.231L15.6919 108.231L15.6919 108.231C13.3387 107.447 12.1621 107.055 12.1621 106.334C12.1621 105.613 13.3387 105.221 15.6919 104.436L24.2051 101.599C25.8609 101.047 26.6888 100.771 27.1258 101.208C27.5628 101.645 27.2869 102.473 26.7349 104.129L23.8972 112.642L23.8972 112.642L23.8972 112.642C23.1128 114.995 22.7206 116.172 21.9998 116.172C21.2791 116.172 20.8869 114.995 20.1025 112.642L19.3161 110.283C19.2611 110.118 19.2159 109.982 19.173 109.868L22.3536 106.688C22.5488 106.492 22.5488 106.176 22.3536 105.98C22.1583 105.785 21.8417 105.785 21.6464 105.98L18.466 109.161C18.352 109.118 18.2162 109.073 18.0511 109.018Z" fill="white"/>
</svg>
