<svg width="24" height="25" viewBox="0 0 24 25" fill="none" xmlns="http://www.w3.org/2000/svg">
<path d="M19.6585 10.7865L12.6585 4.66149C12.2815 4.33159 11.7185 4.33159 11.3415 4.66149L4.3415 10.7865C4.12448 10.9764 4 11.2507 4 11.5391V20.0853C4 20.6376 4.44772 21.0853 5 21.0853H9C9.55228 21.0853 10 20.6376 10 20.0853V16.0853C10 15.533 10.4477 15.0853 11 15.0853H13C13.5523 15.0853 14 15.533 14 16.0853V20.0853C14 20.6376 14.4477 21.0853 15 21.0853H19C19.5523 21.0853 20 20.6376 20 20.0853V11.5391C20 11.2507 19.8755 10.9764 19.6585 10.7865Z" stroke="white" stroke-width="2" stroke-linecap="round" stroke-linejoin="round"/>
</svg>
