<svg width="18" height="18" viewBox="0 0 18 18" fill="none" xmlns="http://www.w3.org/2000/svg">
<g opacity="0.6">
<path d="M12.75 12.1709C14.4978 12.5827 15.75 13.694 15.75 15.0002" stroke="white" stroke-width="1.6" stroke-linecap="round" stroke-linejoin="round"/>
<path d="M2.25 15C2.25 13.3431 4.26472 12 6.75 12C9.23528 12 11.25 13.3431 11.25 15" stroke="white" stroke-width="1.6" stroke-linecap="round" stroke-linejoin="round"/>
<path d="M11.25 9.75C12.9069 9.75 14.25 8.40685 14.25 6.75C14.25 5.09315 12.9069 3.75 11.25 3.75" stroke="white" stroke-width="1.6" stroke-linecap="round" stroke-linejoin="round"/>
<path d="M6.75 9.75C8.40685 9.75 9.75 8.40685 9.75 6.75C9.75 5.09315 8.40685 3.75 6.75 3.75C5.09315 3.75 3.75 5.09315 3.75 6.75C3.75 8.40685 5.09315 9.75 6.75 9.75Z" stroke="white" stroke-width="1.6" stroke-linecap="round" stroke-linejoin="round"/>
</g>
</svg>
