<svg width="24" height="25" viewBox="0 0 24 25" fill="none" xmlns="http://www.w3.org/2000/svg">
<path fill-rule="evenodd" clip-rule="evenodd" d="M16 6.33301C16 5.22844 16.8954 4.33301 18 4.33301C19.1046 4.33301 20 5.22844 20 6.33301C20 7.43758 19.1046 8.33301 18 8.33301C16.8954 8.33301 16 7.43758 16 6.33301ZM18 2.33301C15.7909 2.33301 14 4.12387 14 6.33301C14 6.62043 14.0303 6.90077 14.0879 7.17101L9.01694 9.7065C8.28363 8.86489 7.20393 8.33301 6 8.33301C3.79086 8.33301 2 10.1239 2 12.333C2 14.5421 3.79086 16.333 6 16.333C7.20393 16.333 8.28363 15.8011 9.01694 14.9595L14.0879 17.495C14.0303 17.7652 14 18.0456 14 18.333C14 20.5421 15.7909 22.333 18 22.333C20.2091 22.333 22 20.5421 22 18.333C22 16.1239 20.2091 14.333 18 14.333C16.7961 14.333 15.7164 14.8649 14.9831 15.7065L9.91208 13.171C9.96969 12.9008 10 12.6204 10 12.333C10 12.0456 9.96969 11.7652 9.91208 11.495L14.9831 8.95951C15.7164 9.80112 16.7961 10.333 18 10.333C20.2091 10.333 22 8.54215 22 6.33301C22 4.12387 20.2091 2.33301 18 2.33301ZM4 12.333C4 11.2284 4.89543 10.333 6 10.333C7.10457 10.333 8 11.2284 8 12.333C8 13.4376 7.10457 14.333 6 14.333C4.89543 14.333 4 13.4376 4 12.333ZM18 16.333C16.8954 16.333 16 17.2284 16 18.333C16 19.4376 16.8954 20.333 18 20.333C19.1046 20.333 20 19.4376 20 18.333C20 17.2284 19.1046 16.333 18 16.333Z" fill="white"/>
</svg>
