<svg width="32" height="32" viewBox="0 0 32 32" fill="none" xmlns="http://www.w3.org/2000/svg">
<path d="M10.1667 8H21.8333C21.9121 8 21.9644 8.02858 21.9891 8.05082C21.9944 8.05559 21.9978 8.05933 22 8.06198V23.9384C21.9931 23.9458 21.9777 23.9596 21.9497 23.9731C21.8694 24.0118 21.7749 24.0088 21.7009 23.9644L17.1619 21.2395C16.4532 20.814 15.5468 20.814 14.8381 21.2395L10.2991 23.9644C10.2251 24.0088 10.1306 24.0118 10.0503 23.9731C10.0223 23.9596 10.0069 23.9458 10 23.9384V8.06198C10.0021 8.05933 10.0056 8.05559 10.0109 8.05082C10.0356 8.02858 10.0879 8 10.1667 8ZM22.0032 8.06679C22.0031 8.0668 22.0027 8.06622 22.0023 8.06505C22.003 8.0662 22.0033 8.06679 22.0032 8.06679ZM9.99682 8.06679C9.99675 8.06679 9.99698 8.0662 9.99773 8.06505C9.99726 8.06622 9.99689 8.0668 9.99682 8.06679Z" stroke="white" stroke-width="2" fill="white" stroke-linecap="round" stroke-linejoin="round"/>
</svg>
