<svg width="20" height="21" viewBox="0 0 20 21" fill="none" xmlns="http://www.w3.org/2000/svg">
<path d="M9.99984 13.6647C11.8408 13.6647 13.3332 12.1723 13.3332 10.3314C13.3332 8.49043 11.8408 6.99805 9.99984 6.99805C8.15889 6.99805 6.6665 8.49043 6.6665 10.3314C6.6665 12.1723 8.15889 13.6647 9.99984 13.6647Z" stroke="white" stroke-width="1.6" stroke-linecap="round" stroke-linejoin="round"/>
<path d="M15.9727 6.94922L15.9179 6.85434C15.7667 6.59266 15.6895 6.29481 15.6946 5.99265L15.7196 4.5103C15.7247 4.20736 15.5649 3.92552 15.3024 3.77425L13.0219 2.46008C12.76 2.30918 12.437 2.31189 12.1777 2.46714L10.9118 3.22513C10.6531 3.38005 10.3571 3.46187 10.0556 3.46187H9.94583C9.64361 3.46187 9.34708 3.37969 9.08797 3.22414L7.81625 2.46066C7.55605 2.30445 7.2315 2.30205 6.96901 2.45439L4.69569 3.7738C4.43445 3.92543 4.27571 4.20655 4.28079 4.50856L4.30576 5.99265C4.31084 6.29481 4.23367 6.59266 4.08252 6.85434L4.02844 6.94795C3.8772 7.20977 3.65758 7.42552 3.39311 7.57208L2.09737 8.29014C1.83179 8.43732 1.66728 8.71729 1.66797 9.02093L1.67394 11.6474C1.67462 11.9492 1.83842 12.2271 2.10215 12.3738L3.39167 13.0912C3.65704 13.2388 3.87704 13.4561 4.02789 13.7197L4.08583 13.8209C4.23486 14.0812 4.31085 14.377 4.30579 14.677L4.28084 16.1546C4.27573 16.4575 4.43546 16.7394 4.69799 16.8907L6.97852 18.2048C7.24037 18.3557 7.5634 18.353 7.82269 18.1978L9.08859 17.4398C9.34732 17.2849 9.64323 17.203 9.94479 17.203H10.0545C10.3568 17.203 10.6533 17.2852 10.9124 17.4408L12.1841 18.2042C12.4443 18.3605 12.7689 18.3629 13.0314 18.2105L15.3047 16.8911C15.5659 16.7395 15.7247 16.4584 15.7196 16.1564L15.6946 14.6723C15.6895 14.3701 15.7667 14.0722 15.9179 13.8106L15.9719 13.717C16.1232 13.4551 16.3428 13.2394 16.6073 13.0928L17.903 12.3748C18.1686 12.2276 18.3331 11.9476 18.3324 11.644L18.3264 9.01746C18.3258 8.71567 18.162 8.43784 17.8982 8.29112L16.6056 7.57203C16.3422 7.42549 16.1234 7.21024 15.9727 6.94922Z" stroke="white" stroke-width="1.6" stroke-linecap="round" stroke-linejoin="round"/>
</svg>
