<svg width="24" height="25" viewBox="0 0 24 25" fill="none" xmlns="http://www.w3.org/2000/svg">
<path d="M9.58333 5.15039H2.91667C2.68655 5.15039 2.5 5.35932 2.5 5.61706V10.2837C2.5 10.5415 2.68655 10.7504 2.91667 10.7504H9.58333C9.81345 10.7504 10 10.5415 10 10.2837V5.61706C10 5.35932 9.81345 5.15039 9.58333 5.15039Z" stroke="white" stroke-width="2" stroke-linecap="round" stroke-linejoin="round"/>
<path d="M21.0833 5.15039H14.4167C14.1865 5.15039 14 5.35932 14 5.61706V10.2837C14 10.5415 14.1865 10.7504 14.4167 10.7504H21.0833C21.3135 10.7504 21.5 10.5415 21.5 10.2837V5.61706C21.5 5.35932 21.3135 5.15039 21.0833 5.15039Z" stroke="white" stroke-width="2" stroke-linecap="round" stroke-linejoin="round"/>
<path d="M9.58333 14.75H2.91667C2.68655 14.75 2.5 14.9589 2.5 15.2167V19.8833C2.5 20.1411 2.68655 20.35 2.91667 20.35H9.58333C9.81345 20.35 10 20.1411 10 19.8833V15.2167C10 14.9589 9.81345 14.75 9.58333 14.75Z" stroke="white" stroke-width="2" stroke-linecap="round" stroke-linejoin="round"/>
<path d="M21.0833 14.75H14.4167C14.1865 14.75 14 14.9589 14 15.2167V19.8833C14 20.1411 14.1865 20.35 14.4167 20.35H21.0833C21.3135 20.35 21.5 20.1411 21.5 19.8833V15.2167C21.5 14.9589 21.3135 14.75 21.0833 14.75Z" stroke="white" stroke-width="2" stroke-linecap="round" stroke-linejoin="round"/>
</svg>
