<svg width="34" height="34" viewBox="0 0 34 34" fill="none" xmlns="http://www.w3.org/2000/svg">
<rect width="34" height="34" rx="6" fill="#828282" fill-opacity="0.2"/>
<path fill-rule="evenodd" clip-rule="evenodd" d="M12.457 11.0428C12.0664 10.6523 11.4332 10.6524 11.0428 11.043C10.6523 11.4336 10.6524 12.0668 11.043 12.4572L15.586 16.9986L11.0431 21.54C10.6525 21.9304 10.6524 22.5636 11.0428 22.9542C11.4333 23.3448 12.0664 23.3449 12.457 22.9544L17.0005 18.4126L21.5439 22.9544C21.9345 23.3449 22.5676 23.3448 22.9581 22.9542C23.3486 22.5636 23.3484 21.9304 22.9579 21.54L18.4149 16.9986L22.9579 12.4572C23.3485 12.0668 23.3486 11.4336 22.9582 11.043C22.5677 10.6524 21.9345 10.6523 21.5439 11.0428L17.0005 15.5847L12.457 11.0428Z" fill="white" fill-opacity="0.6"/>
</svg>
