<svg width="24" height="24" viewBox="0 0 24 24" fill="none" xmlns="http://www.w3.org/2000/svg">
<mask id="path-1-outside-1_4282_3753" maskUnits="userSpaceOnUse" x="1.86475" y="2.26343" width="20" height="20" fill="black">
<rect fill="white" x="1.86475" y="2.26343" width="20" height="20"/>
<path fill-rule="evenodd" clip-rule="evenodd" d="M10.3546 12.3628L5.98264 10.9054C4.57071 10.4348 3.86475 10.1995 3.86475 9.767C3.86475 9.33455 4.57071 9.09923 5.98264 8.62858L17.9863 4.62736C18.9798 4.29621 19.4765 4.13063 19.7387 4.39284C20.0009 4.65504 19.8354 5.15177 19.5042 6.14522L19.5042 6.14524L19.5042 6.14526L15.503 18.1489C15.0323 19.5608 14.797 20.2668 14.3646 20.2668C13.9321 20.2668 13.6968 19.5608 13.2261 18.1489L11.7688 13.777L15.0716 10.4743C15.4621 10.0837 15.4621 9.45057 15.0716 9.06004C14.681 8.66952 14.0479 8.66952 13.6573 9.06004L10.3546 12.3628Z"/>
</mask>
<path d="M5.98264 10.9054L6.4886 9.38753H6.4886L5.98264 10.9054ZM10.3546 12.3628L9.84867 13.8806L10.7868 14.1934L11.486 13.4941L10.3546 12.3628ZM5.98264 8.62858L5.47668 7.11069L5.98264 8.62858ZM17.9863 4.62736L18.4923 6.14526L17.9863 4.62736ZM19.7387 4.39284L18.6073 5.52421L18.6074 5.52421L19.7387 4.39284ZM19.5042 6.14522L17.9863 5.63926L17.9753 5.67224L17.9658 5.70567L19.5042 6.14522ZM19.5042 6.14524L21.0079 6.69203L21.0271 6.63903L21.0426 6.58479L19.5042 6.14524ZM19.5042 6.14526L18.0005 5.59847L17.9931 5.61878L17.9863 5.63929L19.5042 6.14526ZM15.503 18.1489L17.0209 18.6549L15.503 18.1489ZM13.2261 18.1489L14.744 17.643L13.2261 18.1489ZM11.7688 13.777L10.6375 12.6456L9.93823 13.3448L10.2509 14.283L11.7688 13.777ZM15.0716 10.4743L13.9402 9.34288L13.9402 9.34288L15.0716 10.4743ZM13.6573 9.06004L12.526 7.92867V7.92867L13.6573 9.06004ZM5.47667 12.4233L9.84867 13.8806L10.8606 10.8449L6.4886 9.38753L5.47667 12.4233ZM2.26475 9.767C2.26475 11.0402 3.35755 11.5969 3.69429 11.7607C4.16549 11.9899 4.81921 12.2042 5.47667 12.4233L6.4886 9.38753C6.1303 9.2681 5.84047 9.17139 5.59649 9.08384C5.34861 8.99489 5.19224 8.93083 5.09415 8.88311C4.98006 8.82761 5.03969 8.83883 5.14099 8.94241C5.20102 9.0038 5.28636 9.10832 5.35548 9.26102C5.42748 9.4201 5.46475 9.5941 5.46475 9.767H2.26475ZM5.47668 7.11069C4.81921 7.32984 4.16549 7.5441 3.69429 7.77333C3.35755 7.93715 2.26475 8.49378 2.26475 9.767H5.46475C5.46475 9.9399 5.42748 10.1139 5.35548 10.273C5.28636 10.4257 5.20102 10.5302 5.14099 10.5916C5.03969 10.6952 4.98006 10.7064 5.09415 10.6509C5.19224 10.6032 5.34861 10.5391 5.59649 10.4502C5.84047 10.3626 6.1303 10.2659 6.4886 10.1465L5.47668 7.11069ZM17.4803 3.10947L5.47668 7.11069L6.4886 10.1465L18.4923 6.14526L17.4803 3.10947ZM20.8701 3.26147C20.1605 2.55188 19.2695 2.63885 18.8565 2.71232C18.4319 2.78785 17.9254 2.96111 17.4803 3.10947L18.4923 6.14526C18.7466 6.06047 18.9423 5.99535 19.1086 5.94469C19.2781 5.89307 19.3702 5.87118 19.417 5.86286C19.4715 5.85315 19.3887 5.87631 19.2359 5.85134C19.151 5.83747 19.0424 5.80846 18.9244 5.75059C18.8042 5.69167 18.697 5.61385 18.6073 5.52421L20.8701 3.26147ZM21.0221 6.65118C21.1705 6.20611 21.3437 5.69965 21.4192 5.27503C21.4927 4.86202 21.5797 3.97104 20.8701 3.26146L18.6074 5.52421C18.5177 5.43457 18.4399 5.32733 18.381 5.2072C18.3231 5.08919 18.2941 4.98054 18.2802 4.89566C18.2552 4.74289 18.2784 4.66001 18.2687 4.71459C18.2604 4.76136 18.2385 4.85347 18.1869 5.02291C18.1362 5.1892 18.0711 5.3849 17.9863 5.63926L21.0221 6.65118ZM21.0426 6.58479L21.0426 6.58477L17.9658 5.70567L17.9658 5.70569L21.0426 6.58479ZM21.0079 6.69205L21.0079 6.69203L18.0005 5.59845L18.0005 5.59847L21.0079 6.69205ZM17.0209 18.6549L21.0221 6.65122L17.9863 5.63929L13.9851 17.643L17.0209 18.6549ZM14.3646 21.8668C15.6378 21.8668 16.1944 20.774 16.3582 20.4373C16.5875 19.9661 16.8017 19.3123 17.0209 18.6549L13.9851 17.643C13.8656 18.0013 13.7689 18.2911 13.6814 18.5351C13.5924 18.7829 13.5284 18.9393 13.4807 19.0374C13.4252 19.1515 13.4364 19.0919 13.54 18.9906C13.6013 18.9305 13.7059 18.8452 13.8586 18.7761C14.0177 18.7041 14.1917 18.6668 14.3646 18.6668V21.8668ZM11.7082 18.6549C11.9274 19.3123 12.1417 19.9661 12.3709 20.4373C12.5347 20.774 13.0913 21.8668 14.3646 21.8668V18.6668C14.5375 18.6668 14.7115 18.7041 14.8705 18.7761C15.0232 18.8452 15.1278 18.9305 15.1891 18.9906C15.2927 19.0919 15.3039 19.1515 15.2484 19.0374C15.2007 18.9393 15.1367 18.7829 15.0477 18.5351C14.9602 18.2911 14.8635 18.0013 14.744 17.643L11.7082 18.6549ZM10.2509 14.283L11.7082 18.6549L14.744 17.643L13.2867 13.271L10.2509 14.283ZM13.9402 9.34288L10.6375 12.6456L12.9002 14.9084L16.2029 11.6056L13.9402 9.34288ZM13.9402 10.1914C13.7059 9.9571 13.7059 9.5772 13.9402 9.34288L16.2029 11.6056C17.2183 10.5903 17.2183 8.94403 16.2029 7.92867L13.9402 10.1914ZM14.7887 10.1914C14.5544 10.4257 14.1745 10.4257 13.9402 10.1914L16.2029 7.92867C15.1876 6.91331 13.5413 6.91331 12.526 7.92867L14.7887 10.1914ZM11.486 13.4941L14.7887 10.1914L12.526 7.92867L9.22326 11.2314L11.486 13.4941Z" fill="white" mask="url(#path-1-outside-1_4282_3753)"/>
</svg>
