<svg width="20" height="21" viewBox="0 0 20 21" fill="none" xmlns="http://www.w3.org/2000/svg">
<path fill-rule="evenodd" clip-rule="evenodd" d="M16.8335 2.83301C16.8335 2.28072 16.3858 1.83301 15.8335 1.83301C15.2812 1.83301 14.8335 2.28072 14.8335 2.83301V4.38181C14.1112 3.79519 13.2836 3.34127 12.3884 3.0478C10.8303 2.53705 9.14959 2.53925 7.59289 3.05408C6.03619 3.56891 4.68555 4.56924 3.73925 5.90823C2.79295 7.24721 2.30084 8.8543 2.33518 10.4936C2.36952 12.1328 2.92849 13.7179 3.93003 15.0161C4.93157 16.3143 6.32292 17.2572 7.89981 17.7064C9.4767 18.1555 11.1561 18.0874 12.6914 17.5118C14.2266 16.9363 15.537 15.8837 16.43 14.5086C16.7308 14.0454 16.5991 13.4261 16.1359 13.1253C15.6728 12.8245 15.0534 12.9561 14.7526 13.4193C14.0926 14.4357 13.1241 15.2137 11.9893 15.6391C10.8545 16.0645 9.61326 16.1149 8.44773 15.7829C7.2822 15.4509 6.25381 14.7539 5.51354 13.7944C4.77327 12.8349 4.36012 11.6633 4.33474 10.4517C4.30936 9.24005 4.67309 8.0522 5.37253 7.06252C6.07197 6.07283 7.07027 5.33346 8.22087 4.95293C9.37148 4.5724 10.6138 4.57078 11.7654 4.94829C12.4599 5.17598 13.0994 5.53435 13.6517 5.99967H11.6668C11.1145 5.99967 10.6668 6.44739 10.6668 6.99967C10.6668 7.55196 11.1145 7.99967 11.6668 7.99967H15.8335C16.3858 7.99967 16.8335 7.55196 16.8335 6.99967V2.83301Z" fill="white"/>
</svg>
