<svg width="25" height="25" viewBox="0 0 25 25" fill="none" xmlns="http://www.w3.org/2000/svg">
<path fill-rule="evenodd" clip-rule="evenodd" d="M9.99521 5.15296C7.23461 6.16548 5.18722 8.65612 4.81189 11.666H8.76766C8.84487 9.49232 9.17177 7.5105 9.68 5.98583C9.77641 5.69659 9.88134 5.41771 9.99521 5.15296ZM12.75 4.66602C12.7501 4.66602 12.7502 4.66602 12.7503 4.66602C12.7515 4.66602 12.7558 4.66619 12.7653 4.66907C12.7764 4.67247 12.7985 4.68084 12.8314 4.70109C12.9006 4.74354 13.0045 4.83009 13.1323 4.99225C13.3925 5.32243 13.6706 5.86218 13.9226 6.61828C14.3527 7.90859 14.6545 9.66877 14.731 11.666H10.769C10.8455 9.66877 11.1473 7.90859 11.5774 6.61828C11.8294 5.86218 12.1075 5.32243 12.3677 4.99225C12.4955 4.83009 12.5994 4.74354 12.6686 4.70109C12.7015 4.68084 12.7236 4.67247 12.7347 4.66907C12.7448 4.666 12.749 4.66601 12.7499 4.66602M8.76766 13.666H4.81189C5.18722 16.6759 7.23461 19.1665 9.99521 20.1791C9.88134 19.9143 9.77641 19.6354 9.68 19.3462C9.17177 17.8215 8.84487 15.8397 8.76766 13.666ZM12.7498 20.666C12.7486 20.666 12.7443 20.6659 12.7347 20.663C12.7236 20.6596 12.7015 20.6512 12.6686 20.6309C12.5994 20.5885 12.4955 20.5019 12.3677 20.3398C12.1075 20.0096 11.8294 19.4699 11.5774 18.7137C11.1473 17.4234 10.8455 15.6633 10.769 13.666H14.731C14.6545 15.6633 14.3527 17.4234 13.9226 18.7137C13.6706 19.4699 13.3925 20.0096 13.1323 20.3398C13.0045 20.5019 12.9006 20.5885 12.8314 20.6309C12.7985 20.6512 12.7764 20.6596 12.7653 20.663C12.7552 20.666 12.751 20.666 12.7501 20.666H12.75C13.718 20.666 14.6459 20.4941 15.5048 20.1791C18.2654 19.1665 20.3128 16.6759 20.6881 13.666H16.7323C16.6551 15.8397 16.3282 17.8215 15.82 19.3462C15.7236 19.6354 15.6187 19.9143 15.5048 20.1791M16.7323 11.666H20.6881C20.3128 8.65612 18.2654 6.16548 15.5048 5.15296C15.6187 5.41771 15.7236 5.69659 15.82 5.98583C16.3282 7.5105 16.6551 9.49232 16.7323 11.666ZM12.7499 20.666H12.75H12.7499ZM12.75 22.666C18.2728 22.666 22.75 18.1889 22.75 12.666C22.75 7.14317 18.2728 2.66602 12.75 2.66602C7.22715 2.66602 2.75 7.14317 2.75 12.666C2.75 18.1889 7.22715 22.666 12.75 22.666Z" fill="white"/>
</svg>