<svg width="24" height="24" viewBox="0 0 24 24" fill="none" xmlns="http://www.w3.org/2000/svg">
<path d="M6.66667 4H18.3333C18.4121 4 18.4644 4.02858 18.4891 4.05082C18.4944 4.05559 18.4979 4.05933 18.5 4.06198V19.9384C18.4931 19.9458 18.4777 19.9596 18.4497 19.9731C18.3694 20.0118 18.2749 20.0088 18.2009 19.9644L13.6619 17.2395C12.9532 16.814 12.0468 16.814 11.3381 17.2395L6.79911 19.9644C6.72513 20.0088 6.63056 20.0118 6.55032 19.9731C6.52235 19.9596 6.50693 19.9458 6.5 19.9384V4.06198C6.50215 4.05933 6.50558 4.05559 6.51088 4.05082C6.53558 4.02858 6.58787 4 6.66667 4ZM18.5032 4.06679C18.5031 4.0668 18.5027 4.06622 18.5023 4.06505C18.503 4.0662 18.5033 4.06679 18.5032 4.06679ZM6.49682 4.06679C6.49675 4.06679 6.49698 4.0662 6.49773 4.06505C6.49726 4.06622 6.49689 4.0668 6.49682 4.06679Z" stroke="white" stroke-width="2" stroke-linecap="round" stroke-linejoin="round"/>
</svg>
