<svg width="32" height="32" viewBox="0 0 32 32" fill="none" xmlns="http://www.w3.org/2000/svg">
<path fill-rule="evenodd" clip-rule="evenodd" d="M16.5 0C15.6716 0 15 0.671573 15 1.5V15.0002H1.5C0.671573 15.0002 0 15.6718 0 16.5002C0 17.3286 0.671573 18.0002 1.5 18.0002H15V30.5C15 31.3284 15.6716 32 16.5 32C17.3284 32 18 31.3284 18 30.5V18.0002H30.5C31.3284 18.0002 32 17.3286 32 16.5002C32 15.6718 31.3284 15.0002 30.5 15.0002H18V1.5C18 0.671573 17.3284 0 16.5 0Z" fill="white" fill-opacity="0.2"/>
</svg>
