<svg width="18" height="18" viewBox="0 0 18 18" fill="none" xmlns="http://www.w3.org/2000/svg">
<g opacity="0.3">
<path fill-rule="evenodd" clip-rule="evenodd" d="M4.45698 3.04271C4.06639 2.65225 3.43323 2.65236 3.04277 3.04296C2.65231 3.43355 2.65242 4.06671 3.04302 4.45717L7.586 8.99856L3.04307 13.5399C2.65248 13.9304 2.65237 14.5635 3.04282 14.9541C3.43328 15.3447 4.06644 15.3448 4.45704 14.9544L9.00046 10.4125L13.5439 14.9544C13.9345 15.3448 14.5676 15.3447 14.9581 14.9541C15.3486 14.5635 15.3484 13.9304 14.9579 13.5399L10.4149 8.99856L14.9579 4.45717C15.3485 4.06671 15.3486 3.43355 14.9582 3.04296C14.5677 2.65236 13.9345 2.65225 13.5439 3.04271L9.00046 7.5846L4.45698 3.04271Z" fill="white"/>
</g>
</svg>
